<?xml version="1.0" encoding="UTF-8" standalone="no"?>
<svg
   width="97"
   height="20"
   viewBox="0 0 97 20"
   fill="none"
   version="1.1"
   id="svg12"
   sodipodi:docname="logo_pilxer_sale_v1.svg"
   inkscape:version="1.2.2 (1:1.2.2+202212051552+b0a8486541)"
   xmlns:inkscape="http://www.inkscape.org/namespaces/inkscape"
   xmlns:sodipodi="http://sodipodi.sourceforge.net/DTD/sodipodi-0.dtd"
   xmlns="http://www.w3.org/2000/svg"
   xmlns:svg="http://www.w3.org/2000/svg">
  <defs
     id="defs16" />
  <sodipodi:namedview
     id="namedview14"
     pagecolor="#ffffff"
     bordercolor="#000000"
     borderopacity="0.25"
     inkscape:showpageshadow="2"
     inkscape:pageopacity="0.0"
     inkscape:pagecheckerboard="0"
     inkscape:deskcolor="#d1d1d1"
     showgrid="false"
     inkscape:zoom="9.5495864"
     inkscape:cx="42.619647"
     inkscape:cy="11.257032"
     inkscape:window-width="1920"
     inkscape:window-height="1016"
     inkscape:window-x="0"
     inkscape:window-y="0"
     inkscape:window-maximized="1"
     inkscape:current-layer="svg12" />
  <path
     fill-rule="evenodd"
     clip-rule="evenodd"
     d="M 4.42306,9.2893399 V 16.3575 C 4.42306,16.7124 4.1304,17 3.76917,17 H 1.1539 C 0.79266,17 0.5,16.7124 0.5,16.3575 V 3.5063499 c 0,-0.26618 0.166966,-0.50474 0.419925,-0.59989 0,0 5.688125,-2.14233405 7.378025,-2.77877105 0.45194,-0.1702518 0.95205,-0.1702518 1.40399,0 1.68986,0.636437 7.37816,2.77877105 7.37816,2.77877105 0.3369,0.1269099 0.5056,0.4987199 0.3765,0.8298199 -0.1292,0.33125 -0.5075,0.49703 -0.8444,0.37011 0,0 -5.6883,-2.1423299 -7.37821,-2.77877 -0.15064,-0.05675 -0.31729,-0.05675 -0.46794,0 l -6.95841,2.6207 V 15.7149 H 3.11543 V 6.0766198 c 0,-0.35485 0.29266,-0.64261 0.65374,-0.64261 H 14.2307 c 0.3611,0 0.6539,0.28776 0.6539,0.64261 V 15.7149 h 1.3077 V 6.0766198 c 0,-0.3546899 0.2929,-0.64261 0.6538,-0.64261 0.3608,0 0.6538,0.28792 0.6538,0.64261 V 16.3575 C 17.4999,16.7124 17.2072,17 16.8461,17 h -2.6154 c -0.3611,0 -0.6539,-0.2876 -0.6539,-0.6425 V 9.2893399 Z m 9.15374,-1.28506 v -1.28506 H 4.42306 v 1.28506 z"
     fill="#000000"
     id="path2" />
  <text
     xml:space="preserve"
     style="font-style:normal;font-variant:normal;font-weight:normal;font-stretch:normal;font-size:26.6667px;line-height:normal;font-family:Dongle;-inkscape-font-specification:'Dongle, Normal';font-variant-ligatures:normal;font-variant-caps:normal;font-variant-numeric:normal;font-variant-east-asian:normal;text-align:justify;text-decoration-color:#000000;fill:#acd9b2;fill-opacity:1;stroke-width:1.33333;-inkscape-stroke:none;stop-color:#000000"
     x="18.073425"
     y="15.704521"
     id="text907"><tspan
       sodipodi:role="line"
       id="tspan905"
       x="18.073425"
       y="15.704521"
       style="font-style:normal;font-variant:normal;font-weight:normal;font-stretch:normal;font-size:26.6667px;font-family:Dongle;-inkscape-font-specification:'Dongle, Normal';font-variant-ligatures:normal;font-variant-caps:normal;font-variant-numeric:normal;font-variant-east-asian:normal;fill:#acd9b2;fill-opacity:1">PIXER </tspan></text>
  <text
     xml:space="preserve"
     style="font-style:normal;font-variant:normal;font-weight:normal;font-stretch:normal;font-size:26.6667px;line-height:normal;font-family:Dongle;-inkscape-font-specification:'Dongle, Normal';font-variant-ligatures:normal;font-variant-caps:normal;font-variant-numeric:normal;font-variant-east-asian:normal;text-align:justify;text-decoration-color:#000000;fill:#000000;stroke-width:1.33333;-inkscape-stroke:none;stop-color:#000000"
     x="60.911919"
     y="16.092903"
     id="text961"><tspan
       sodipodi:role="line"
       id="tspan959"
       x="60.911919"
       y="16.092903">Sale</tspan></text>
</svg>
