<?xml version="1.0" encoding="UTF-8" standalone="no"?>
<svg
   width="97"
   height="20"
   viewBox="0 0 97 20"
   fill="none"
   version="1.1"
   id="svg556"
   sodipodi:docname="logo_yard_sale.svg"
   inkscape:version="1.2.2 (1:1.2.2+202212051552+b0a8486541)"
   xmlns:inkscape="http://www.inkscape.org/namespaces/inkscape"
   xmlns:sodipodi="http://sodipodi.sourceforge.net/DTD/sodipodi-0.dtd"
   xmlns="http://www.w3.org/2000/svg"
   xmlns:svg="http://www.w3.org/2000/svg">
  <defs
     id="defs560" />
  <sodipodi:namedview
     id="namedview558"
     pagecolor="#ffffff"
     bordercolor="#000000"
     borderopacity="0.25"
     inkscape:showpageshadow="2"
     inkscape:pageopacity="0.0"
     inkscape:pagecheckerboard="0"
     inkscape:deskcolor="#d1d1d1"
     showgrid="false"
     inkscape:zoom="13.505155"
     inkscape:cx="48.5"
     inkscape:cy="10.033206"
     inkscape:window-width="1920"
     inkscape:window-height="1016"
     inkscape:window-x="0"
     inkscape:window-y="0"
     inkscape:window-maximized="1"
     inkscape:current-layer="svg556" />
  <path
     fill-rule="evenodd"
     clip-rule="evenodd"
     d="M4.42306 9.28934V16.3575C4.42306 16.7124 4.1304 17 3.76917 17H1.1539C0.79266 17 0.5 16.7124 0.5 16.3575V3.50635C0.5 3.24017 0.666966 3.00161 0.919925 2.90646C0.919925 2.90646 6.60805 0.764126 8.29795 0.127689C8.74989 -0.0425628 9.25 -0.0425628 9.70194 0.127689C11.3918 0.764126 17.0801 2.90646 17.0801 2.90646C17.417 3.03337 17.5857 3.40518 17.4566 3.73628C17.3274 4.06753 16.9491 4.23331 16.6122 4.10639C16.6122 4.10639 10.9239 1.96406 9.23399 1.32762C9.08335 1.27087 8.9167 1.27087 8.76605 1.32762L1.80764 3.94832V15.7149H3.11543V6.07662C3.11543 5.72177 3.40809 5.43401 3.76917 5.43401H14.2307C14.5918 5.43401 14.8846 5.72177 14.8846 6.07662V15.7149H16.1923V6.07662C16.1923 5.72193 16.4852 5.43401 16.8461 5.43401C17.2069 5.43401 17.4999 5.72193 17.4999 6.07662V16.3575C17.4999 16.7124 17.2072 17 16.8461 17H14.2307C13.8696 17 13.5768 16.7124 13.5768 16.3575V9.28934H4.42306ZM13.5768 8.00428V6.71922H4.42306V8.00428H13.5768Z"
     fill="black"
     id="path546" />
  <path
     fill-rule="evenodd"
     clip-rule="evenodd"
     d="M85.86 15.72C85.6733 15.9067 85.4413 16 85.164 16C84.8973 16 84.6733 15.9067 84.492 15.72C84.3107 15.5333 84.22 15.3013 84.22 15.024V5.136C84.22 4.85867 84.3133 4.62667 84.5 4.44C84.6867 4.25333 84.9187 4.16 85.196 4.16C85.4733 4.16 85.7 4.25333 85.876 4.44C86.052 4.62667 86.14 4.85867 86.14 5.136V15.024C86.14 15.3013 86.0467 15.5333 85.86 15.72ZM70.324 15.76C69.7 16.0267 69.0253 16.16 68.3 16.16C67.5533 16.16 66.8813 16.0667 66.284 15.88C65.6867 15.6933 65.116 15.3653 64.572 14.896C64.4333 14.7787 64.3267 14.6453 64.252 14.496C64.1773 14.3467 64.14 14.1973 64.14 14.048C64.14 13.8027 64.228 13.5867 64.404 13.4C64.58 13.2133 64.8013 13.12 65.068 13.12C65.2707 13.12 65.452 13.184 65.612 13.312C66.0173 13.6427 66.42 13.8933 66.82 14.064C67.22 14.2347 67.7133 14.32 68.3 14.32C68.6947 14.32 69.0573 14.2587 69.388 14.136C69.7187 14.0133 69.9853 13.848 70.188 13.64C70.3907 13.432 70.492 13.1947 70.492 12.928C70.492 12.608 70.396 12.336 70.204 12.112C70.012 11.888 69.7187 11.6987 69.324 11.544C68.9293 11.3893 68.428 11.2693 67.82 11.184C67.244 11.0987 66.7373 10.968 66.3 10.792C65.8627 10.616 65.4973 10.392 65.204 10.12C64.9107 9.848 64.6893 9.528 64.54 9.16C64.3907 8.792 64.316 8.37867 64.316 7.92C64.316 7.22667 64.4947 6.63467 64.852 6.144C65.2093 5.65333 65.692 5.28 66.3 5.024C66.908 4.768 67.58 4.64 68.316 4.64C69.0093 4.64 69.652 4.744 70.244 4.952C70.836 5.16 71.3187 5.424 71.692 5.744C72.0013 5.98933 72.156 6.272 72.156 6.592C72.156 6.82667 72.0653 7.04 71.884 7.232C71.7027 7.424 71.4893 7.52 71.244 7.52C71.084 7.52 70.94 7.472 70.812 7.376C70.6413 7.22667 70.412 7.08533 70.124 6.952C69.836 6.81867 69.532 6.70667 69.212 6.616C68.892 6.52533 68.5933 6.48 68.316 6.48C67.8573 6.48 67.4707 6.53867 67.156 6.656C66.8413 6.77333 66.604 6.93333 66.444 7.136C66.284 7.33867 66.204 7.57333 66.204 7.84C66.204 8.16 66.2973 8.424 66.484 8.632C66.6707 8.84 66.94 9.00533 67.292 9.128C67.644 9.25067 68.0653 9.36 68.556 9.456C69.196 9.57333 69.7587 9.712 70.244 9.872C70.7293 10.032 71.132 10.2373 71.452 10.488C71.772 10.7387 72.012 11.0533 72.172 11.432C72.332 11.8107 72.412 12.272 72.412 12.816C72.412 13.5093 72.22 14.1067 71.836 14.608C71.452 15.1093 70.948 15.4933 70.324 15.76ZM78.676 15.96C78.3293 16.0933 77.9533 16.16 77.548 16.16C76.812 16.16 76.1453 15.9707 75.548 15.592C74.9507 15.2133 74.4787 14.6907 74.132 14.024C73.7853 13.3573 73.612 12.592 73.612 11.728C73.612 10.8533 73.7853 10.0827 74.132 9.416C74.4787 8.74933 74.9453 8.22667 75.532 7.848C76.1187 7.46933 76.7693 7.28 77.484 7.28C77.9427 7.28 78.364 7.34933 78.748 7.488C79.132 7.62667 79.4653 7.80267 79.748 8.016L79.9099 8.14432C79.9613 8.1872 80.0114 8.23176 80.06 8.278V8.256C80.06 7.97867 80.1507 7.74667 80.332 7.56C80.5133 7.37333 80.7427 7.28 81.02 7.28C81.2973 7.28 81.5267 7.37067 81.708 7.552C81.8893 7.73333 81.98 7.968 81.98 8.256V15.024C81.98 15.3013 81.8893 15.5333 81.708 15.72C81.5267 15.9067 81.2973 16 81.02 16C80.7427 16 80.5133 15.9067 80.332 15.72L80.2489 15.6229C80.1482 15.4884 80.0877 15.3337 80.0676 15.1589L80.061 15.04L79.9832 15.1235C79.868 15.2406 79.7336 15.3568 79.58 15.472C79.324 15.664 79.0227 15.8267 78.676 15.96ZM77.788 14.4C77.3293 14.4 76.924 14.2827 76.572 14.048C76.22 13.8133 75.9453 13.4933 75.748 13.088C75.5507 12.6827 75.452 12.2293 75.452 11.728C75.452 11.216 75.5507 10.7573 75.748 10.352C75.9453 9.94667 76.22 9.62667 76.572 9.392C76.924 9.15733 77.3293 9.04 77.788 9.04C78.2573 9.04 78.668 9.15733 79.02 9.392C79.372 9.62667 79.6467 9.94667 79.844 10.352C80.0413 10.7573 80.14 11.216 80.14 11.728C80.14 12.2293 80.0413 12.6827 79.844 13.088C79.6467 13.4933 79.372 13.8133 79.02 14.048C78.668 14.2827 78.2573 14.4 77.788 14.4ZM92.332 16.16C92.8653 16.16 93.3827 16.072 93.884 15.896C94.3853 15.72 94.7747 15.5147 95.052 15.28C95.3507 15.0453 95.5 14.784 95.5 14.496C95.5 14.2827 95.4227 14.096 95.268 13.936C95.1133 13.776 94.9187 13.696 94.684 13.696C94.5133 13.696 94.332 13.744 94.14 13.84C94.0227 13.904 93.892 13.9813 93.748 14.072C93.604 14.1627 93.4147 14.24 93.18 14.304C92.9453 14.368 92.6307 14.4 92.236 14.4C91.8093 14.4 91.4067 14.296 91.028 14.088C90.6493 13.88 90.34 13.576 90.1 13.176C89.9629 12.9474 89.8649 12.6901 89.8061 12.4041L89.802 12.384H95.084C95.2888 12.384 95.4731 12.3328 95.637 12.2304L95.756 12.144C95.948 11.984 96.0493 11.776 96.06 11.52C96.06 10.944 95.9507 10.4 95.732 9.888C95.5133 9.376 95.2173 8.92533 94.844 8.536C94.4707 8.14667 94.0413 7.84 93.556 7.616C93.0707 7.392 92.556 7.28 92.012 7.28C91.308 7.28 90.6413 7.46133 90.012 7.824C89.3827 8.18667 88.8733 8.70667 88.484 9.384C88.0947 10.0613 87.9 10.88 87.9 11.84C87.9 12.6613 88.0787 13.3973 88.436 14.048C88.7933 14.6987 89.3053 15.2133 89.972 15.592C90.6387 15.9707 91.4253 16.16 92.332 16.16ZM89.819 10.784H94.012V10.672C93.9907 10.3627 93.8813 10.0853 93.684 9.84C93.4867 9.59467 93.2413 9.4 92.948 9.256C92.6547 9.112 92.3427 9.04 92.012 9.04C91.692 9.04 91.3933 9.08267 91.116 9.168C90.8387 9.25333 90.5987 9.39733 90.396 9.6C90.1933 9.80267 90.0333 10.0747 89.916 10.416L89.8622 10.5942L89.819 10.784Z"
     fill="black"
     id="path550" />
  <text
     xml:space="preserve"
     style="font-style:normal;font-variant:normal;font-weight:normal;font-stretch:normal;font-size:26.6667px;line-height:normal;font-family:Dongle;-inkscape-font-specification:'Dongle, Normal';font-variant-ligatures:normal;font-variant-caps:normal;font-variant-numeric:normal;font-variant-east-asian:normal;text-align:justify;text-decoration-color:#000000;fill:#acd9b2;fill-opacity:1;stroke-width:1.33333;-inkscape-stroke:none;stop-color:#000000"
     x="18.06805"
     y="15.459513"
     id="text907"><tspan
       sodipodi:role="line"
       id="tspan905"
       x="18.06805"
       y="15.459513"
       style="font-style:normal;font-variant:normal;font-weight:normal;font-stretch:normal;font-size:26.6667px;font-family:Dongle;-inkscape-font-specification:'Dongle, Normal';font-variant-ligatures:normal;font-variant-caps:normal;font-variant-numeric:normal;font-variant-east-asian:normal;fill:#acd9b2;fill-opacity:1">PIXER </tspan></text>
</svg>
